<?xml version="1.0" encoding="utf-8"?>
<!-- Generator: Adobe Illustrator 16.0.0, SVG Export Plug-In . SVG Version: 6.00 Build 0)  -->
<!DOCTYPE svg PUBLIC "-//W3C//DTD SVG 1.1//EN" "http://www.w3.org/Graphics/SVG/1.1/DTD/svg11.dtd">
<svg version="1.1" id="Layer_1" xmlns="http://www.w3.org/2000/svg" xmlns:xlink="http://www.w3.org/1999/xlink" x="0px" y="0px"
	 width="350px" height="350px" viewBox="0 0 350 350" enable-background="new 0 0 350 350" xml:space="preserve">
<g id="Setup">
	<g>
		<path fill="#6DA1CE" d="M100,176.722V53.125C100,37.616,87.384,25,71.875,25C56.366,25,43.75,37.616,43.75,53.125v123.597
			C32.864,180.612,25,190.921,25,203.126v37.5c0,12.204,7.864,22.512,18.75,26.395v29.855C43.75,312.385,56.366,325,71.875,325
			C87.384,325,100,312.385,100,296.876v-29.855c10.886-3.883,18.75-14.19,18.75-26.395v-37.5
			C118.75,190.921,110.886,180.612,100,176.722z M62.5,53.125c0-5.173,4.202-9.375,9.375-9.375s9.375,4.202,9.375,9.375V175H62.5
			V53.125z M81.25,296.876c0,5.172-4.202,9.374-9.375,9.374s-9.375-4.202-9.375-9.374V268.75h18.75V296.876z M100,240.626
			c0,5.172-4.202,9.374-9.375,9.374h-37.5c-5.173,0-9.375-4.202-9.375-9.374v-37.5c0-5.174,4.202-9.376,9.375-9.376h37.5
			c5.173,0,9.375,4.202,9.375,9.376V240.626z M306.25,139.221V53.125C306.25,37.616,293.635,25,278.126,25
			C262.615,25,250,37.616,250,53.125v86.096c-10.886,3.891-18.75,14.2-18.75,26.404v37.501c0,12.203,7.864,22.512,18.75,26.395
			v67.355C250,312.385,262.615,325,278.126,325c15.509,0,28.124-12.615,28.124-28.124v-67.355
			c10.886-3.883,18.75-14.191,18.75-26.395v-37.501C325,153.421,317.136,143.112,306.25,139.221z M268.75,53.125
			c0-5.173,4.202-9.375,9.376-9.375c5.172,0,9.374,4.202,9.374,9.375V137.5h-18.75V53.125z M287.5,296.876
			c0,5.172-4.202,9.374-9.374,9.374c-5.174,0-9.376-4.202-9.376-9.374V231.25h18.75V296.876z M306.25,203.126
			c0,5.163-4.202,9.374-9.374,9.374h-37.5c-5.174,0-9.376-4.211-9.376-9.374v-37.501c0-5.173,4.202-9.375,9.376-9.375h37.5
			c5.172,0,9.374,4.202,9.374,9.375V203.126z M203.126,64.23V53.125C203.126,37.616,190.509,25,175,25s-28.125,12.616-28.125,28.125
			V64.23c-10.886,3.882-18.75,14.191-18.75,26.395v37.5c0,12.204,7.864,22.513,18.75,26.395v142.356
			C146.875,312.385,159.491,325,175,325s28.126-12.615,28.126-28.124V154.529c10.885-3.891,18.75-14.2,18.75-26.404v-37.5
			C221.876,78.421,214.011,68.112,203.126,64.23z M165.625,53.125c0-5.173,4.202-9.375,9.375-9.375c5.172,0,9.374,4.202,9.374,9.375
			V62.5h-18.749V53.125z M184.374,296.876c0,5.172-4.202,9.374-9.374,9.374c-5.173,0-9.375-4.202-9.375-9.374V156.25h18.749V296.876
			z M203.126,128.125c0,5.164-4.202,9.375-9.376,9.375h-37.5c-5.173,0-9.375-4.211-9.375-9.375v-37.5
			c0-5.173,4.202-9.375,9.375-9.375h37.5c5.174,0,9.376,4.202,9.376,9.375V128.125z"/>
	</g>
</g>
</svg>
