<?xml version="1.0" encoding="utf-8"?>
<!-- Generator: Adobe Illustrator 16.0.0, SVG Export Plug-In . SVG Version: 6.00 Build 0)  -->
<!DOCTYPE svg PUBLIC "-//W3C//DTD SVG 1.1//EN" "http://www.w3.org/Graphics/SVG/1.1/DTD/svg11.dtd">
<svg version="1.1" id="Layer_1" xmlns="http://www.w3.org/2000/svg" xmlns:xlink="http://www.w3.org/1999/xlink" x="0px" y="0px"
	 width="296.129px" height="333.479px" viewBox="0 0 296.129 333.479" enable-background="new 0 0 296.129 333.479"
	 xml:space="preserve">
<g>
	<polygon fill="#6DA1CE" points="83.256,133.324 72.015,109.739 58.679,109.739 78,144.06 78,163.739 89,163.739 89,144.06 
		106.842,109.739 94.021,109.739 	"/>
	<path fill="#6DA1CE" d="M155.004,114.879c-4.09-4.212-10.005-6.318-17.744-6.318c-7.74,0-13.654,2.106-17.744,6.318
		c-5.486,4.973-8.229,12.417-8.229,22.336c0,9.724,2.743,17.169,8.229,22.337c4.09,4.213,10.004,6.318,17.744,6.318
		c7.738,0,13.654-2.105,17.744-6.318c5.461-5.168,8.193-12.613,8.193-22.337C163.197,127.296,160.465,119.852,155.004,114.879z
		 M147.932,151.322c-2.633,3.307-6.19,4.96-10.672,4.96c-4.482,0-8.059-1.653-10.728-4.96c-2.67-3.307-4.004-8.009-4.004-14.107
		c0-6.098,1.334-10.8,4.004-14.106c2.669-3.307,6.245-4.96,10.728-4.96c4.481,0,8.039,1.66,10.672,4.979
		c2.632,3.318,3.949,8.015,3.949,14.088C151.881,143.313,150.564,148.016,147.932,151.322z"/>
	<path fill="#6DA1CE" d="M215,143.497v-33.758h-11v33.731c0,3.72-0.543,6.437-1.422,8.149c-1.367,3.034-4.384,4.552-8.947,4.552
		c-4.588,0-7.756-1.518-9.123-4.552c-0.879-1.713-1.508-4.43-1.508-8.149v-33.731h-11v33.758c0,5.756,0.807,10.238,2.592,13.446
		c3.35,5.878,9.665,8.816,19.029,8.816s15.543-2.938,18.867-8.816C214.273,153.735,215,149.253,215,143.497z"/>
	<path fill="#6DA1CE" d="M296.129,314.185l-61.26-81.071c24.262-24.734,39.229-58.616,39.229-96C274.098,61.388,212.711,0,136.985,0
		C61.259,0-0.128,61.388-0.128,137.113s61.388,137.113,137.113,137.113c26.818,0,51.832-7.706,72.962-21.015l60.648,80.267
		L296.129,314.185z M31.831,137.113c0-58.075,47.079-105.154,105.154-105.154c58.076,0,105.154,47.079,105.154,105.154
		s-47.078,105.154-105.154,105.154C78.91,242.268,31.831,195.188,31.831,137.113z"/>
</g>
</svg>
