<?xml version="1.0" encoding="utf-8"?>
<!-- Generator: Adobe Illustrator 16.0.0, SVG Export Plug-In . SVG Version: 6.00 Build 0)  -->
<!DOCTYPE svg PUBLIC "-//W3C//DTD SVG 1.1//EN" "http://www.w3.org/Graphics/SVG/1.1/DTD/svg11.dtd">
<svg version="1.1" id="Layer_1" xmlns="http://www.w3.org/2000/svg" xmlns:xlink="http://www.w3.org/1999/xlink" x="0px" y="0px"
	 width="335px" height="280px" viewBox="0 0 335 280" enable-background="new 0 0 335 280" xml:space="preserve">
<g>
	<g>
		<g>
			<circle fill="#6DA1CE" cx="87.769" cy="100" r="17.5"/>
			<circle fill="#6DA1CE" cx="167.769" cy="100" r="17.5"/>
			<circle fill="#6DA1CE" cx="247.769" cy="100" r="17.5"/>
		</g>
		<path fill="#6DA1CE" d="M318.29,0H18.247C8.594,0,0,7.505,0,16.968v165.73C0,192.161,8.594,200,18.247,200H318.29
			c9.653,0,16.71-7.839,16.71-17.302V16.968C335,7.505,327.943,0,318.29,0z M308,160.57c0,6.936-5.397,12.43-13.519,12.43H42.056
			C33.936,173,27,167.506,27,160.57V39.096C27,32.16,33.936,27,42.056,27h252.425C302.603,27,308,32.16,308,39.096V160.57z"/>
	</g>
	<g>
		<path fill="#6DA1CE" d="M283,226c0,6.627-5.373,12-12,12h-36c-6.627,0-12-5.373-12-12v-6c0-6.627,5.373-12,12-12h36
			c6.627,0,12,5.373,12,12V226z"/>
		<path fill="#6DA1CE" d="M251,268c0,6.627-3.582,12-8,12h-24c-4.418,0-8-5.373-8-12v-6c0-6.627,3.582-12,8-12h24
			c4.418,0,8,5.373,8,12V268z"/>
	</g>
</g>
</svg>
