<?xml version="1.0" encoding="utf-8"?>
<!-- Generator: Adobe Illustrator 16.0.0, SVG Export Plug-In . SVG Version: 6.00 Build 0)  -->
<!DOCTYPE svg PUBLIC "-//W3C//DTD SVG 1.1//EN" "http://www.w3.org/Graphics/SVG/1.1/DTD/svg11.dtd">
<svg version="1.1" id="Layer_1" xmlns="http://www.w3.org/2000/svg" xmlns:xlink="http://www.w3.org/1999/xlink" x="0px" y="0px"
	 width="250px" height="250px" viewBox="0 0 250 250" enable-background="new 0 0 250 250" xml:space="preserve">
<path fill="#6DA1CE" d="M125,0C55.964,0,0,55.964,0,125c0,69.035,55.964,125,125,125c69.035,0,125-55.965,125-125
	C250,55.964,194.035,0,125,0z M125,232.5c-59.371,0-107.5-48.13-107.5-107.5C17.5,65.629,65.629,17.5,125,17.5
	c59.37,0,107.5,48.129,107.5,107.5C232.5,184.37,184.37,232.5,125,232.5z"/>
<g>
	<path fill="#6DA1CE" d="M67.476,140.124v8.75H32.271v-47.748h34.727v8.75H44.165v10.015h21.772v8.749H44.165v11.484H67.476z"/>
	<path fill="#6DA1CE" d="M104.51,101.126l21.208,47.748h-12.79l-3.935-9.434H87.61l-3.565,9.434H71.44l19.287-47.748H104.51z
		 M105.516,131.101l-7.739-18.559l-7.015,18.559H105.516z"/>
	<path fill="#6DA1CE" d="M163.623,104.202v9.331c-6.335-2.849-11.382-4.272-15.142-4.272c-2.143,0-3.845,0.358-5.11,1.076
		c-1.264,0.718-1.896,1.67-1.896,2.854c0,0.911,0.455,1.777,1.367,2.598c0.911,0.82,3.133,1.88,6.665,3.179
		c3.531,1.299,6.357,2.506,8.477,3.623c2.119,1.116,3.948,2.688,5.485,4.717c1.539,2.027,2.308,4.592,2.308,7.689
		c0,4.422-1.681,7.941-5.042,10.562c-3.361,2.62-7.787,3.93-13.278,3.93c-5.925,0-11.667-1.537-17.227-4.613v-10.289
		c3.189,2.143,6.016,3.703,8.477,4.684c2.461,0.979,5.069,1.469,7.827,1.469c4.671,0,7.007-1.469,7.007-4.406
		c0-1.002-0.468-1.947-1.402-2.835s-3.186-1.97-6.752-3.245s-6.392-2.46-8.477-3.555c-2.084-1.094-3.884-2.654-5.398-4.684
		c-1.516-2.027-2.272-4.626-2.272-7.794c0-4.104,1.651-7.414,4.956-9.933c3.304-2.519,7.725-3.777,13.262-3.777
		C152.56,100.511,157.949,101.741,163.623,104.202z"/>
	<path fill="#6DA1CE" d="M187.002,148.874v-22.28l-18.833-25.468h14.419l10.361,15.005l10.403-15.005h14.377l-18.833,25.482v22.266
		H187.002z"/>
</g>
</svg>
